solid OpenSCAD_Model
  facet normal 0 -1 0
    outer loop
      vertex 10 -82.5 -12.5
      vertex 14 -82.5 -8.5
      vertex 14 -82.5 12.5
    endloop
  endfacet
  facet normal 0 -1 0
    outer loop
      vertex 10 -82.5 -12.5
      vertex 96.19999999999999 -82.5 -12.5
      vertex 14 -82.5 -8.5
    endloop
  endfacet
  facet normal 0 -1 0
    outer loop
      vertex 10 -82.5 -12.5
      vertex 14 -82.5 12.5
      vertex 10 -82.5 12.5
    endloop
  endfacet
  facet normal -1 0 0
    outer loop
      vertex 10 -82.5 -12.5
      vertex 10 -82.5 12.5
      vertex 10 82.5 12.5
    endloop
  endfacet
  facet normal 0 0 1
    outer loop
      vertex 10 -82.5 12.5
      vertex 14 -82.5 12.5
      vertex 14 82.5 12.5
    endloop
  endfacet
  facet normal -1 0 0
    outer loop
      vertex 10 -82.5 -12.5
      vertex 10 82.5 12.5
      vertex 10 82.5 -12.5
    endloop
  endfacet
  facet normal 0 1 0
    outer loop
      vertex 10 82.5 -12.5
      vertex 10 82.5 12.5
      vertex 14 82.5 -8.5
    endloop
  endfacet
  facet normal 0 0 -1
    outer loop
      vertex 10 -82.5 -12.5
      vertex 10 82.5 -12.5
      vertex 96.19999999999999 82.5 -12.5
    endloop
  endfacet
  facet normal 0 1 0
    outer loop
      vertex 10 82.5 -12.5
      vertex 14 82.5 -8.5
      vertex 96.19999999999999 82.5 -8.5
    endloop
  endfacet
  facet normal 0 0 1
    outer loop
      vertex 10 -82.5 12.5
      vertex 14 82.5 12.5
      vertex 10 82.5 12.5
    endloop
  endfacet
  facet normal 0 1 0
    outer loop
      vertex 10 82.5 12.5
      vertex 14 82.5 12.5
      vertex 14 82.5 -8.5
    endloop
  endfacet
  facet normal 0 -1 0
    outer loop
      vertex 96.19999999999999 -82.5 -12.5
      vertex 96.19999999999999 -82.5 -8.5
      vertex 14 -82.5 -8.5
    endloop
  endfacet
  facet normal 0 0 -1
    outer loop
      vertex 10 -82.5 -12.5
      vertex 96.19999999999999 82.5 -12.5
      vertex 96.19999999999999 -82.5 -12.5
    endloop
  endfacet
  facet normal 1 0 0
    outer loop
      vertex 96.19999999999999 -82.5 -12.5
      vertex 96.19999999999999 82.5 -12.5
      vertex 96.19999999999999 -82.5 -8.5
    endloop
  endfacet
  facet normal 0 1 0
    outer loop
      vertex 10 82.5 -12.5
      vertex 96.19999999999999 82.5 -8.5
      vertex 96.19999999999999 82.5 -12.5
    endloop
  endfacet
  facet normal 1 0 0
    outer loop
      vertex 96.19999999999999 82.5 -12.5
      vertex 96.19999999999999 82.5 -8.5
      vertex 96.19999999999999 -82.5 -8.5
    endloop
  endfacet
  facet normal 1 0 0
    outer loop
      vertex 14 -82.5 12.5
      vertex 14 -82.5 -8.5
      vertex 14 82.5 12.5
    endloop
  endfacet
  facet normal 1 0 0
    outer loop
      vertex 14 82.5 12.5
      vertex 14 -82.5 -8.5
      vertex 14 82.5 -8.5
    endloop
  endfacet
  facet normal 0 0 1
    outer loop
      vertex 96.19999999999999 82.5 -8.5
      vertex 14 82.5 -8.5
      vertex 14 -82.5 -8.5
    endloop
  endfacet
  facet normal 0 0 1
    outer loop
      vertex 96.19999999999999 82.5 -8.5
      vertex 14 -82.5 -8.5
      vertex 96.19999999999999 -82.5 -8.5
    endloop
  endfacet
endsolid OpenSCAD_Model
